<svg width="381" height="282" viewBox="0 0 381 282" fill="none" xmlns="http://www.w3.org/2000/svg">
<path fill-rule="evenodd" clip-rule="evenodd" d="M143.012 276.386C205.672 294.505 236.722 226.968 290.483 232.518C319.912 235.557 378.508 250.291 379.142 146.099C379.308 78.8315 317.432 61.532 253.244 95.5589C234.376 102.778 219.54 100.389 203.466 92.9601C187.393 85.5314 166.892 52.744 127.85 45.743C10.3612 24.6748 -91.6484 208.533 143.012 276.386Z" fill="#FFE86E"/>
<path fill-rule="evenodd" clip-rule="evenodd" d="M293.467 108.253C294.649 107.689 296.754 108.815 295.515 110.594C292.771 114.532 303.213 122.516 299.894 115.524C299.539 114.776 297.728 109.611 300.324 112.29C302.919 114.969 306.478 126.749 304.091 130.781C301.995 134.32 296.507 135.97 289.03 136.116L288.693 136.121L288.534 136.129C284.126 136.302 280.804 133.55 278.686 128.223L278.585 127.963C276.442 122.388 277.073 117.935 280.627 114.957C280.691 114.903 280.76 114.854 280.833 114.812L280.944 114.753L293.467 108.253Z" fill="white"/>
<path fill-rule="evenodd" clip-rule="evenodd" d="M56.1597 2.46072C55.651 1.72751 54.8211 1.30135 53.9308 1.40376C53.019 1.50759 52.2526 2.13543 51.9691 3.00735L51.8933 3.24052C51.836 3.41264 51.7678 3.60973 51.6879 3.83135C51.4597 4.46407 51.1836 5.16618 50.8579 5.92111C49.932 8.06728 48.7961 10.2077 47.4443 12.1968C44.5277 16.4885 41.0296 19.4652 36.9463 20.5916C36.308 20.7677 35.9334 21.4278 36.1094 22.0661C36.1988 22.39 42.128 25.408 48.2088 24.7027C54.1069 24.0187 60.1626 19.6204 60.2134 19.3184L60.2922 18.6895L60.3148 18.4787C60.7704 13.9047 60.0072 8.72843 56.9618 3.69722C56.7089 3.2793 56.4416 2.86703 56.1597 2.46072Z" fill="#E7EAEE"/>
<path fill-rule="evenodd" clip-rule="evenodd" d="M68.4129 3.88226L68.3798 4.12413C67.9302 7.21967 66.7022 11.5262 64.5149 14.7654C61.8219 18.7535 58.0405 21.7908 54.2487 23.7382C48.7785 26.5473 42.8431 27.0254 37.03 23.281L36.7736 23.1133C33.7192 21.0834 31.3973 20.0997 28.1958 20.8739C24.9943 21.648 23.4251 23.9641 22.0297 26.1133L21.9658 26.2042C21.7425 26.498 21.4176 26.7002 21.0525 26.7696L14.9865 27.6847L17.1728 30.442C17.8308 31.2778 18.2984 31.8802 18.5757 32.2494L20.9775 35.4621C28.1357 44.9947 35.8476 54.103 51.0389 51.081L51.5538 50.9746C55.579 50.1108 58.9307 52.5347 63.1315 56.1018L64.029 56.8689C65.1402 57.8233 68.4986 60.8282 69.8717 62.2728L70.3203 62.7507L70.7342 63.2025C70.8204 63.2978 70.9026 63.3895 70.9805 63.4771L71.4082 63.9666L71.6752 63.6558C74.5619 60.2323 76.3924 54.9992 77.3519 50.6782C77.7144 49.0456 77.927 47.4813 78.0213 46.0373L78.033 45.8493C78.0579 45.4272 78.0703 45.0585 78.0741 44.7506L78.0758 44.5221L77.6427 44.6456C72.6295 46.0277 66.9998 46.1273 61.5122 45.4534C60.1866 45.2906 74.8273 33.6096 71.952 18.3215C71.2966 14.8372 70.8987 10.1821 69.7328 7.01588C69.365 6.01727 68.983 5.10374 68.6038 4.28658L68.4129 3.88226Z" fill="white"/>
<path fill-rule="evenodd" clip-rule="evenodd" d="M294.086 110.143L281.59 116.105C278.586 118.623 278.051 122.396 279.984 127.426C280.662 129.19 282.36 133.394 282.372 131.748C282.376 131.234 293.986 123.766 296.198 124.521C298.242 125.219 294.606 119.033 293.594 116.193L294.087 109.988L294.434 109.373" fill="#E7EAEE"/>
<path fill-rule="evenodd" clip-rule="evenodd" d="M277.439 114.564C278.267 114.57 273.561 116.741 273.773 120.81C273.985 124.88 277.108 132.399 276.333 132.689C275.558 132.979 274.108 130.783 273.819 130.007C272.016 125.184 271.682 123.218 271.769 120.413C271.882 116.741 273.829 114.538 277.439 114.564Z" fill="#E7EAEE"/>
<ellipse cx="298.277" cy="118.746" rx="3.23692" ry="7.31239" transform="rotate(0.420763 298.277 118.746)" fill="#E7EAEE"/>
<path fill-rule="evenodd" clip-rule="evenodd" d="M71.6209 194.183C71.714 181.495 73.1641 175.989 88.3525 169.176C119.47 156.864 119.473 156.38 179.078 133.837C194.841 127.907 227.873 142.633 242.328 136.669C251.964 132.694 260.97 129.755 268.936 125.8C269.668 130.825 274.573 139.358 276.313 140.832C267.004 142.714 257.992 145.664 249.275 149.683C230.431 158.369 241.577 156.046 211.627 183.878C209.089 186.236 199.786 191.588 186.351 197.135C186.351 197.135 159.405 193.315 148.62 188.736C137.644 184.075 121.068 169.416 121.068 169.416C121.068 169.416 101.518 181.967 90.291 187.59C85.0359 190.222 71.6209 194.183 71.6209 194.183Z" fill="white"/>
<path fill-rule="evenodd" clip-rule="evenodd" d="M71.6689 187.59C71.6908 184.612 71.3915 182.53 71.723 180.234C72.8037 172.747 76.8516 168.942 88.475 163.728C119.592 151.415 119.521 149.787 179.126 127.244C194.889 121.314 227.921 136.04 242.376 130.076C252.012 126.1 261.018 123.162 268.984 119.207C269.005 119.351 268.129 126.203 268.129 126.203C268.129 126.203 248.46 136.406 235.483 138.505C221.695 140.735 202.859 129.786 183.934 134.964C155.113 142.849 88.6458 167.81 80.7582 174.13C74.5605 179.096 71.6689 187.59 71.6689 187.59Z" fill="#E7EAEE"/>
<path fill-rule="evenodd" clip-rule="evenodd" d="M56.1597 2.46072C55.651 1.72751 54.8211 1.30135 53.9308 1.40376C53.019 1.50759 52.2526 2.13543 51.9691 3.00735L51.8933 3.24052C51.836 3.41264 51.7678 3.60973 51.6879 3.83135C51.4597 4.46407 51.1836 5.16618 50.8579 5.92111C49.932 8.06728 48.7961 10.2077 47.4443 12.1968C44.5277 16.4885 41.0296 19.4652 36.9463 20.5916C36.308 20.7677 35.9334 21.4278 36.1094 22.0661C36.2855 22.7043 46.219 18.2654 49.4273 13.5445C50.8716 11.4193 52.0772 9.14766 53.0594 6.87085C53.3557 6.18396 53.614 5.53672 53.8356 4.93932L53.9433 4.64482C54.0301 4.40418 54.1048 4.18838 54.1683 3.9978C54.1849 3.86164 54.1998 3.81615 54.213 3.86133C61.0461 8.61009 58.2607 20.2505 58.92 20.312C59.5492 20.3707 60.1102 19.9318 60.2134 19.3184L60.2922 18.6895L60.3148 18.4787C60.7704 13.9047 60.0072 8.72843 56.9618 3.69722C56.7089 3.2793 56.4416 2.86703 56.1597 2.46072Z" fill="#E7EAEE"/>
<path fill-rule="evenodd" clip-rule="evenodd" d="M70.46 2.53053L70.6094 2.80174L70.7915 3.14981C70.9011 3.36403 71.0242 3.61256 71.158 3.89317C71.622 4.86583 72.0897 5.96609 72.5364 7.17902C73.7936 10.5931 74.6632 14.2742 74.9411 18.1047C75.3183 23.3026 74.5324 28.1999 72.6005 32.6461L72.4351 33.0194C70.8666 36.4922 68.5952 39.6681 65.6563 42.5108L65.3649 42.7887L65.6108 42.8024C69.8115 43.0098 73.9698 42.6642 77.6314 41.5262C78.4166 41.2823 79.2698 41.4175 79.9413 41.8918C80.6114 42.3653 81.0243 43.1223 81.0605 43.9419L81.0682 44.1964L81.0716 44.5325L81.0707 44.6618C81.0672 45.1309 81.0496 45.6566 81.012 46.2326C80.9081 47.8234 80.6749 49.5386 80.2776 51.3279C79.1551 56.3829 76.9503 61.109 73.3743 65.0785C72.8998 65.6054 72.2352 65.9184 71.5309 65.9509L71.3682 65.9535C70.6165 65.9337 69.9324 65.6181 69.4484 65.0837L69.0942 64.666L68.9204 64.4658L68.5511 64.0496L68.1466 63.6064C68.006 63.4544 67.8598 63.2984 67.7081 63.1388C66.4157 61.7791 64.9884 60.4298 63.471 59.1868C59.2651 55.7417 55.1982 53.7841 51.7113 53.9675C46.0075 54.2682 41.288 53.9671 36.9168 52.706C31.2657 51.0756 26.8421 47.9255 23.9359 42.9412L23.7731 42.6571C22.2691 39.9891 20.0416 36.9122 17.4109 33.7072C16.5979 32.7167 15.7958 31.7747 15.031 30.9032L14.7056 30.5342C14.1846 29.9459 13.7576 29.4771 13.5786 29.2861C12.9177 28.5794 12.6936 27.5706 12.9913 26.6519L13.035 26.5278C13.361 25.6696 14.1091 25.0375 15.0165 24.8653L19.8825 23.9407L19.9397 23.8592C21.6964 21.4007 24.1941 19.3258 27.4977 18.5069C30.9436 17.6526 34.5573 18.4439 38.1852 20.7834L38.4383 20.9491C43.3374 24.2049 48.2181 24.063 52.8751 21.6716C56.2015 19.9632 59.3814 17.0442 61.8011 13.4609C64.0508 10.1293 65.3997 6.55994 65.5148 3.73579C65.5628 2.55555 66.3846 1.54792 67.5318 1.26729C68.6801 0.985976 69.875 1.50232 70.46 2.53053ZM68.4129 3.88228L68.3798 4.12415C67.9302 7.21969 66.7022 11.5262 64.5149 14.7655C61.8219 18.7535 58.0405 21.7908 54.2487 23.7382C48.7785 26.5473 42.8431 27.0254 37.03 23.2811L36.7736 23.1133C33.7192 21.0834 31.3973 20.0997 28.1958 20.8739C24.9943 21.648 23.4251 23.9641 22.0297 26.1134L21.9658 26.2042C21.7425 26.498 21.4176 26.7002 21.0525 26.7696L14.9865 27.6848L17.1728 30.442C17.8308 31.2778 18.2984 31.8802 18.5757 32.2494L20.9775 35.4621C28.1357 44.9948 35.8476 54.103 51.0389 51.0811L51.5538 50.9746C55.579 50.1109 58.9307 52.5347 63.1315 56.1018L64.029 56.8689C65.1402 57.8234 68.4986 60.8283 69.8717 62.2729L70.3203 62.7507L70.7342 63.2025C70.8204 63.2978 70.9026 63.3895 70.9805 63.4772L71.4082 63.9666L71.6752 63.6558C74.5619 60.2323 76.3924 54.9992 77.3519 50.6782C77.7144 49.0456 77.927 47.4813 78.0213 46.0373L78.033 45.8493C78.0579 45.4272 78.0703 45.0586 78.0741 44.7506L78.0758 44.5221L77.6427 44.6456C72.6295 46.0277 66.9998 46.1273 61.5122 45.4534C60.1866 45.2906 74.8273 33.6096 71.952 18.3216C71.2966 14.8372 70.8987 10.1821 69.7328 7.01591C69.365 6.0173 68.983 5.10377 68.6038 4.28661L68.4129 3.88228Z" fill="#E7EAEE"/>
<path fill-rule="evenodd" clip-rule="evenodd" d="M30.2224 30.5846C31.3792 30.5931 32.3272 29.6589 32.3357 28.5021C32.3442 27.3453 31.41 26.3973 30.2532 26.3888C29.0964 26.3803 28.1484 27.3144 28.1399 28.4713C28.1314 29.6279 29.0656 30.5761 30.2224 30.5846Z" fill="#00160A"/>
<ellipse cx="31.9788" cy="36.2921" rx="3.29678" ry="2.69736" transform="rotate(0.420763 31.9788 36.2921)" fill="#FFB61D"/>
<ellipse cx="31.9788" cy="36.2921" rx="3.29678" ry="2.69736" transform="rotate(0.420763 31.9788 36.2921)" fill="#FFB61D"/>
<path fill-rule="evenodd" clip-rule="evenodd" d="M70.4601 2.53049L70.6094 2.80169L70.7915 3.14976C70.9011 3.36398 71.0242 3.61251 71.158 3.89313C71.622 4.86578 72.0897 5.96604 72.5364 7.17897C73.7936 10.5931 74.6632 14.2741 74.9412 18.1046C75.3183 23.3026 74.5324 28.1998 72.6005 32.6461L72.4351 33.0193C70.8666 36.4922 68.5952 39.668 65.6563 42.5107L65.365 42.7887L65.6108 42.8024C69.8116 43.0098 73.9698 42.6642 77.6314 41.5262C78.4166 41.2822 79.2698 41.4174 79.9413 41.8917C80.6114 42.3652 81.0243 43.1223 81.0605 43.9419L81.0682 44.1963L81.0716 44.5325L81.0707 44.6618C81.0672 45.1309 81.0496 45.6566 81.012 46.2326C80.9081 47.8234 80.675 49.5385 80.2776 51.3278C79.1552 56.3828 76.9503 61.109 73.3743 65.0784C72.8998 65.6054 72.2352 65.9183 71.531 65.9508L71.3682 65.9534C70.6165 65.9337 69.9324 65.618 69.4484 65.0837L69.0942 64.666L68.9205 64.4657L68.5511 64.0495L68.1466 63.6063C68.006 63.4544 67.8598 63.2984 67.7081 63.1388C66.4157 61.779 64.9884 60.4297 63.471 59.1868C59.2651 55.7416 55.1982 53.7841 51.7113 53.9675C46.0075 54.2681 41.2881 53.9671 36.9168 52.706C31.2657 51.0756 26.8421 47.9255 23.936 42.9412L23.7731 42.6571C22.2691 39.9891 20.0416 36.9121 17.4109 33.7071C16.5979 32.7166 15.7958 31.7746 15.031 30.9032L14.7056 30.5341C14.1846 29.9459 13.7576 29.477 13.5786 29.2861C12.9177 28.5793 12.6936 27.5706 12.9913 26.6519L13.035 26.5277C13.361 25.6696 14.1091 25.0374 15.0165 24.8653L19.8825 23.9406L19.9397 23.8592C21.6964 21.4007 24.1941 19.3257 27.4977 18.5068C30.7496 17.7007 34.1509 18.3599 37.5725 20.4029C41.3883 19.1551 44.6779 16.2674 47.4443 12.1968C48.7961 10.2077 49.932 8.06722 50.8579 5.92105C51.1836 5.16613 51.4597 4.46401 51.6879 3.8313C51.7678 3.60967 51.836 3.41259 51.8933 3.24047L51.9691 3.00729C52.2526 2.13538 53.019 1.50753 53.9308 1.40371C54.8211 1.30129 55.651 1.72746 56.1597 2.46066C56.4416 2.86697 56.7089 3.27924 56.9618 3.69716C59.3258 7.60264 60.3146 11.5955 60.4256 15.3262C60.9063 14.728 61.366 14.1052 61.8011 13.4608C64.0508 10.1292 65.3997 6.55989 65.5148 3.73574C65.5629 2.5555 66.3846 1.54787 67.5319 1.26725C68.6802 0.98593 69.875 1.50227 70.4601 2.53049ZM52.8751 21.6715C48.3516 23.9945 43.6169 24.1948 38.8593 21.2205C42.088 19.7563 47.2734 16.7139 49.4273 13.5445C50.8716 11.4193 52.0772 9.14761 53.0594 6.8708C53.3558 6.1839 53.614 5.53667 53.8356 4.93927L53.9433 4.64477C54.0301 4.40412 54.1048 4.18833 54.1683 3.99775C54.1849 3.86158 54.1998 3.81609 54.213 3.86128C58.7552 7.01789 59.0473 13.2197 58.9262 17.0415C57.0769 18.9859 55.006 20.5771 52.8751 21.6715ZM54.2487 23.7382C56.0845 22.7953 57.9179 21.597 59.6264 20.1591C59.7572 20.0842 59.873 19.9852 59.9674 19.8675C61.6564 18.3995 63.2129 16.6936 64.5149 14.7654C66.7022 11.5262 67.9302 7.21965 68.3798 4.12411L68.4129 3.88224L68.6038 4.28656C68.983 5.10372 69.3651 6.01725 69.7328 7.01586C70.5442 9.2193 70.9837 12.1438 71.3967 14.893C71.5772 16.0943 71.7527 17.262 71.952 18.3215C74.1558 30.0391 66.0697 39.6378 62.7695 43.5554C61.7639 44.7491 61.2026 45.4153 61.5122 45.4533C66.9998 46.1273 72.6295 46.0276 77.6427 44.6456L78.0758 44.5221L78.0741 44.7506C78.0703 45.0585 78.0579 45.4271 78.033 45.8492L78.0213 46.0373C77.9271 47.4813 77.7144 49.0455 77.3519 50.6782C76.3924 54.9992 74.5619 60.2322 71.6752 63.6558L71.4082 63.9666L70.9805 63.4771C70.9026 63.3895 70.8204 63.2978 70.7342 63.2024L70.3204 62.7507L69.8717 62.2728C68.4987 60.8282 65.1402 57.8233 64.029 56.8689L63.1316 56.1018C58.9307 52.5347 55.579 50.1108 51.5538 50.9745L51.0389 51.081C35.8476 54.1029 28.1357 44.9947 20.9775 35.4621L18.5757 32.2493C18.2984 31.8802 17.8308 31.2777 17.1728 30.442L14.9865 27.6847L21.0525 26.7695C21.4176 26.7002 21.7425 26.498 21.9658 26.2042L22.0297 26.1133C23.4251 23.964 24.9943 21.648 28.1958 20.8738C31.3973 20.0997 33.7192 21.0833 36.7736 23.1133L37.03 23.281C42.8431 27.0254 48.7785 26.5473 54.2487 23.7382ZM293.467 108.253C294.649 107.689 296.754 108.815 295.515 110.594C293.639 113.286 295.655 119.586 296.883 123.422C297.451 125.197 297.85 126.445 297.618 126.565C296.881 126.943 295.978 126.652 295.6 125.916C293.553 121.929 292.385 118.766 292.105 116.367C291.966 115.173 291.942 114.019 292.033 112.906L292.045 112.777L282.415 117.371L282.292 117.482C280.111 119.498 279.141 121.85 280.695 126.041L280.787 126.284C282.476 130.679 285.366 133.843 288.398 133.734L288.635 133.724C295.371 133.638 299.412 131.641 300.867 129.184C302.696 126.094 303.213 122.516 299.894 115.524C299.539 114.776 297.728 109.611 300.324 112.29C302.919 114.969 306.478 126.749 304.091 130.781C302.097 134.148 297.034 135.805 290.109 136.084C290.148 136.26 290.155 136.447 290.126 136.636C289.438 141.081 287.386 143.866 283.983 144.651C281.382 145.251 278.596 144.41 276.054 142.414C267.056 144.278 258.34 147.154 249.902 151.044L248.652 151.625C244.347 153.642 241.876 154.998 240.07 156.32C239.01 157.096 238.134 157.891 237.191 158.917L237.039 159.087C236.581 159.611 235.582 160.813 234.445 162.181C232.932 164.001 231.176 166.114 230.129 167.309L229.623 167.882C225.367 172.687 220.008 178.135 212.646 184.975L212.44 185.162C209.681 187.591 202.367 191.679 193.253 195.788C218.327 195.081 236.473 185.646 247.864 167.467C248.365 166.667 249.472 166.525 250.16 167.171C269.385 185.24 291.752 193.701 317.347 192.593C343.011 191.483 361.885 184.953 374.029 173.071C374.62 172.492 375.569 172.502 376.148 173.094C376.727 173.686 376.716 174.634 376.125 175.213C363.386 187.678 336.467 196.904 310.126 198.044C284.51 199.152 269.308 188.489 249.899 171.004L249.425 170.574L249.252 170.835C236.741 189.495 209.76 202.974 182.932 202.971L182.091 202.968C154.652 202.766 138.925 189.364 120.547 171.069L120.403 170.925L120.337 170.981C119.79 171.434 119.248 171.884 118.71 172.33C101.257 186.8 88.2338 197.597 68.744 200.236L68.1224 200.319C46.1375 204.599 12.9314 192.524 7.85776 186.687C3.20898 181.339 8.65266 184.682 10.147 185.6C10.2836 185.684 10.3871 185.747 10.447 185.782C24.9153 194.207 41.644 197.498 61.7627 194.905C64.5394 194.547 67.2993 194.066 70.0425 193.463L70.013 193.167C69.1967 184.826 69.2183 181.183 70.5135 177.011C72.2753 171.336 76.4828 167.045 84.0197 163.664L86.0947 162.765C95.4035 158.744 102.795 155.728 110.46 152.801L111.022 152.587C111.881 152.26 112.752 151.931 113.641 151.597L114.512 151.272C114.827 151.164 118.934 149.57 125.178 147.148C139.577 141.561 165.339 131.567 182.144 125.211C185.779 123.843 190.172 123.412 195.553 123.73L196.017 123.759C200.049 124.026 204.012 124.602 210.507 125.775L216.213 126.818C222.585 127.969 225.674 128.427 229.281 128.711C230.415 128.8 231.493 128.908 232.517 129.011L232.517 129.011L232.517 129.011C236.31 129.392 239.363 129.698 241.804 128.691C243.975 127.795 246.104 126.93 248.19 126.083L248.19 126.083L248.19 126.083C255.012 123.311 261.376 120.726 267.284 117.843C267.707 115.228 268.753 113.302 270.379 112.041C272.887 110.096 276.417 110.089 279.47 111.302C280.239 111.607 280.615 112.479 280.309 113.248C280.21 113.497 279.588 113.377 278.707 113.208C276.864 112.854 273.892 112.284 272.216 114.409C270.351 116.774 269.711 120.414 271.294 127.601C272.441 132.809 280.063 141.706 283.31 141.73C286.929 141.757 287.802 138.249 288.296 136.26L288.327 136.135C284.022 136.215 280.771 133.467 278.686 128.223L278.585 127.963C276.442 122.388 277.074 117.935 280.627 114.957C280.691 114.903 280.76 114.854 280.833 114.812L280.944 114.753L293.467 108.253ZM273.309 139.685C273.158 139.5 273.009 139.311 272.862 139.117C272.807 139.056 272.754 138.996 272.708 138.94C272.573 138.773 272.434 138.603 272.292 138.431C271.141 137.027 269.807 135.401 268.771 133.063L268.621 132.722C266.958 128.923 266.788 124.668 266.917 121.162L266.936 120.755L266.846 120.799C259.837 124.204 252.215 127.616 243.98 131.034L242.947 131.461C239.421 132.916 235.023 133.93 229.463 133.529L229.033 133.497C225.235 133.198 222.041 132.72 215.346 131.507L210.348 130.593C196.259 128.047 189.202 127.614 183.368 129.747C183.368 129.747 96.376 161.743 85.2304 166.406C78.4503 169.447 76.1364 172.339 73.3073 177.031C71.8439 179.458 71.9407 186.184 72.0079 190.855L72.008 190.857L72.0081 190.865C72.0193 191.645 72.0297 192.368 72.0318 193.003C88.4654 189.021 104.296 180.608 119.534 167.746C120.134 167.239 121.025 167.282 121.573 167.845C122.789 169.093 124.026 170.299 125.283 171.462L187.947 145.821C188.119 145.751 188.296 145.715 188.471 145.71C188.943 145.491 189.452 145.311 189.998 145.171C195.456 143.762 199.789 146.151 202.752 151.972L208.226 148.04C209.034 147.46 210.172 147.813 210.51 148.748C215.38 162.214 213.865 171.405 205.65 175.785C197.365 180.202 190.216 176.457 184.704 165.225C184.424 164.655 184.54 164 184.936 163.56C183.642 158.132 183.427 153.814 184.357 150.694L129.441 175.096C137.577 181.801 146.527 186.878 156.298 190.33C156.524 190.118 156.768 189.935 157.007 189.806C165.292 185.347 185.66 180.217 190.691 178.949C191.127 178.84 191.447 178.759 191.635 178.71C193.996 178.096 191.566 180.28 190.852 180.603L190.761 180.641L161.006 191.849C169.814 194.428 179.256 195.754 189.337 195.828C189.91 195.832 190.48 195.832 191.046 195.827L191.713 195.401C198.088 191.323 208.751 184.504 210.606 182.78L211.472 181.973C217.624 176.09 222.213 170.437 226.218 165.502C230.612 160.087 234.305 155.538 238.59 152.5C241.923 150.137 243.128 149.6 245.961 148.339L245.961 148.339C246.719 148.002 247.593 147.613 248.656 147.123C256.17 143.659 264.689 141.684 272.686 139.83L272.687 139.829L272.687 139.829L273.309 139.685ZM190.746 148.073C195.071 146.957 198.289 149.008 200.712 154.687L200.787 155.073C201.664 159.779 201.252 162.407 199.999 163.098C198.814 163.751 197.657 163.096 196.172 160.372C195.82 159.716 195.026 159.41 194.313 159.685L194.302 159.69L187.704 162.237L187.545 161.513C185.803 153.334 187.009 149.037 190.746 148.073ZM117.722 215.609C118.421 215.166 123.242 212.857 118.932 217.231C114.621 221.605 81.1673 240.05 63.1752 240.953C45.8339 241.823 30.4968 234.471 17.1762 224.898L16.7348 224.578L16.6455 224.691C16.0472 225.438 15.4331 226.116 14.8028 226.724L14.5316 226.98C13.3896 228.036 11.4178 229.227 8.57135 230.607C7.82665 230.968 5.2023 231.286 6.56917 229.912C7.93604 228.539 10.9201 226.568 12.6578 225.439C13.7935 224.701 14.1568 223.831 14.5173 222.967C14.7084 222.509 14.8987 222.053 15.2029 221.62C15.6914 220.924 16.6603 220.774 17.3368 221.289C30.4644 231.279 45.8459 236.666 63.2131 235.795C80.652 234.92 98.7091 227.645 117.722 215.609ZM220.178 225.916C220.79 225.359 220.819 221.355 220.207 221.912C213.428 228.075 199.292 233.436 181.891 234.309C164.468 235.184 150.795 232.345 140.846 225.844C140.153 225.391 136.716 224.182 138.772 226.278C140.828 228.375 164.025 239.405 182.032 238.501L182.572 238.473C200.316 237.521 212.857 232.572 220.178 225.916ZM208.426 151.919L208.338 151.649L203.802 154.908L203.882 155.374C204.75 160.687 204.106 164.15 201.578 165.647L201.446 165.723C198.812 167.174 196.351 166.117 194.309 163.08L194.22 162.945L188.135 165.35L188.273 165.606C192.849 174.008 197.972 176.373 204.044 173.243L204.24 173.14C210.338 169.889 211.884 163.173 208.631 152.573L208.426 151.919ZM32.3357 28.5021C32.3272 29.6589 31.3792 30.593 30.2224 30.5845C29.0656 30.5761 28.1315 29.6279 28.1399 28.4712C28.1484 27.3144 29.0964 26.3803 30.2532 26.3888C31.4101 26.3972 32.3442 27.3452 32.3357 28.5021Z" fill="#00160A"/>
</svg>
